<?xml version="1.0" encoding="utf-8"?>
<!-- Generator: Adobe Illustrator 16.0.4, SVG Export Plug-In . SVG Version: 6.00 Build 0)  -->
<!DOCTYPE svg PUBLIC "-//W3C//DTD SVG 1.1//EN" "http://www.w3.org/Graphics/SVG/1.1/DTD/svg11.dtd">
<svg version="1.1" xmlns="http://www.w3.org/2000/svg" xmlns:xlink="http://www.w3.org/1999/xlink" x="0px" y="0px"
	 width="791.302px" height="200px" viewBox="0 0 791.302 200" style="enable-background:new 0 0 791.302 200;" xml:space="preserve"
	>
<g id="Layer_1">
</g>
<g id="Layer_7">
</g>
<g id="Layer_2">
</g>
<g id="Layer_5">
</g>
<g id="Layer_3">
</g>
<g id="Layer_6">
</g>
<g id="Layer_10">
</g>
<g id="Layer_11">
</g>
<g id="Layer_12">
</g>
<g id="Layer_13">
</g>
<g id="Layer_4">
</g>
<g id="Layer_8">
</g>
<g id="Layer_9">
	<g id="Layer_14">
	</g>
	<g id="guides">
	</g>
</g>
<g id="Layer_16">
	<g id="Layer_17">
	</g>
	<g id="Layer_18">
	</g>
</g>
<g id="Layer_19">
	<g id="Layer_20">
	</g>
	<g id="Layer_21">
	</g>
	<g id="Layer_22">
	</g>
</g>
<g id="Layer_23">
</g>
<g id="Layer_24">
</g>
<g id="Layer_25">
</g>
<g id="Layer_26">
	<polygon style="fill:#FFFFFF;" points="441.194,164.723 380.102,129.451 380.102,114.723 441.196,150 441.194,125 380.102,89.723 
		380.102,64.724 441.194,100 452.657,93.382 527.786,50.001 441.196,0.001 354.585,50.001 354.585,64.724 354.585,75 354.585,100 
		354.585,114.724 354.585,150 441.196,200 527.786,150 527.786,114.724 452.657,158.104 	"/>
	<polygon style="fill:#FFFFFF;" points="263.472,149.999 307.028,174.862 349.988,150.062 306.789,125 350.083,100.035 
		350.083,50.001 263.472,0.001 176.884,50.001 176.884,150 263.472,200 263.472,199.999 	"/>
	<path style="fill:#FFFFFF;" d="M619.125,0.001l-86.61,50V150l86.61,50l86.59-50v-14.722v-10.277v-25V85.278V50.001L619.125,0.001z
		 M680.22,135.278l-61.095,34.829V35.276l61.095,35.273V135.278z"/>
	<path style="fill:#FFFFFF;" d="M750.164,0.001l-41.136,23.75v47.5l41.136,23.75l41.138-23.75v-47.5L750.164,0.001z M750.164,63.367
		c-8.762,0-15.866-7.104-15.866-15.866c0-8.764,7.104-15.867,15.866-15.867c8.764,0,15.868,7.104,15.868,15.867
		C766.032,56.264,758.928,63.367,750.164,63.367z"/>
	<polygon style="fill:#FFFFFF;" points="0,50.001 86.613,0 173.223,50.001 173.223,150 86.613,200 0,150 	"/>
</g>
</svg>
