<?xml version="1.0" encoding="utf-8"?>
<!-- Generator: Adobe Illustrator 16.0.4, SVG Export Plug-In . SVG Version: 6.00 Build 0)  -->
<!DOCTYPE svg PUBLIC "-//W3C//DTD SVG 1.1//EN" "http://www.w3.org/Graphics/SVG/1.1/DTD/svg11.dtd">
<svg version="1.1" xmlns="http://www.w3.org/2000/svg" xmlns:xlink="http://www.w3.org/1999/xlink" x="0px" y="0px"
	 width="82.675px" height="95.461px" viewBox="0 0 82.675 95.461" style="enable-background:new 0 0 82.675 95.461;"
	 xml:space="preserve">
<g id="Layer_1">
</g>
<g id="Layer_7">
</g>
<g id="Layer_2">
</g>
<g id="Layer_5">
</g>
<g id="Layer_3">
</g>
<g id="Layer_6">
</g>
<g id="Layer_10">
</g>
<g id="Layer_11">
</g>
<g id="Layer_12">
</g>
<g id="Layer_13">
</g>
<g id="Layer_4">
</g>
<g id="Layer_8">
</g>
<g id="Layer_9">
	<g id="Layer_14">
	</g>
	<g id="guides">
	</g>
</g>
<g id="Layer_16">
	<g id="Layer_17">
	</g>
	<g id="Layer_18">
	</g>
	<g>
		<polygon style="fill:#FFFFFF;" points="0.402,23.866 41.74,0 83.077,23.866 83.077,71.596 41.74,95.461 0.402,71.596 		"/>
		<g>
			<path style="fill-rule:evenodd;clip-rule:evenodd;fill:#F54238;" d="M9.021,67.121c0-13.69,0-27.304,0-40.953
				c0.148-0.014,0.279-0.037,0.408-0.037c6.518,0,13.038-0.013,19.556,0.009c2.191,0.008,4.343,0.328,6.375,1.209
				c3.465,1.504,5.383,4.167,5.847,7.898c0.182,1.46,0.118,2.912-0.228,4.343c-0.473,1.947-1.509,3.514-3.183,4.637
				c-0.452,0.305-0.926,0.58-1.434,0.897c0.175,0.081,0.316,0.152,0.462,0.214c3.228,1.369,5.059,3.831,5.607,7.258
				c0.448,2.806,0.111,5.509-1.258,8.032c-1.847,3.404-4.692,5.421-8.514,6.066c-1.714,0.289-3.433,0.43-5.171,0.428
				c-5.935-0.009-11.869-0.003-17.805-0.003C9.481,67.121,9.275,67.121,9.021,67.121z M18.509,49.086
				c-0.104,0.765-0.073,10.526,0.026,10.901c0.08,0.007,0.164,0.021,0.248,0.021c3-0.002,6.003,0.017,9.003-0.021
				c0.798-0.01,1.61-0.129,2.388-0.312c1.707-0.401,2.896-1.433,3.452-3.126c0.314-0.956,0.413-1.946,0.321-2.945
				c-0.199-2.179-1.321-3.524-3.419-4.125c-1.081-0.31-2.189-0.392-3.308-0.392c-2.726,0-5.451,0-8.179,0
				C18.873,49.086,18.702,49.086,18.509,49.086z M18.472,42.259c0.115,0.016,0.182,0.034,0.245,0.034
				c3.02-0.002,6.037,0.015,9.055-0.018c1.172-0.013,2.309-0.268,3.37-0.809c0.962-0.49,1.563-1.256,1.819-2.299
				c0.216-0.88,0.245-1.768,0.066-2.653c-0.293-1.44-1.131-2.382-2.573-2.769c-1.251-0.335-2.525-0.48-3.812-0.491
				c-2.589-0.021-5.178-0.008-7.768-0.005c-0.13,0-0.259,0.026-0.402,0.042C18.472,36.29,18.472,39.25,18.472,42.259z"/>
			<path style="fill-rule:evenodd;clip-rule:evenodd;fill:#F54238;" d="M74.855,53.329c-7.121,0-14.186,0-21.285,0
				c-0.014,0.14-0.04,0.253-0.035,0.364c0.044,0.966,0.216,1.91,0.57,2.811c0.926,2.368,2.75,3.599,5.188,4.013
				c1.039,0.177,2.087,0.17,3.123-0.026c1.73-0.327,3.077-1.231,3.957-2.766c0.213-0.374,0.458-0.47,0.857-0.467
				c2.213,0.017,4.427,0.008,6.64,0.008c0.169,0,0.34,0,0.581,0c-0.022,0.217-0.028,0.396-0.063,0.569
				c-0.224,1.093-0.698,2.078-1.328,2.989c-2.018,2.918-4.725,4.834-8.214,5.586c-3.266,0.706-6.504,0.65-9.692-0.427
				c-1.857-0.626-3.53-1.591-5.034-2.842c-1.902-1.583-3.024-3.651-3.672-6.004c-0.521-1.9-0.687-3.845-0.675-5.808
				c0.015-2.188,0.241-4.353,0.961-6.433c1.683-4.861,5.106-7.775,10.089-8.852c2.688-0.581,5.394-0.468,8.059,0.211
				c4.416,1.126,7.312,3.946,8.947,8.135c0.654,1.679,0.933,3.438,1.004,5.23c0.045,1.113,0.038,2.23,0.049,3.345
				C74.884,53.064,74.867,53.164,74.855,53.329z M66.923,48.239c-0.036-0.306-0.063-0.56-0.098-0.813
				c-0.361-2.64-2.053-4.543-4.63-5.175c-1.286-0.315-2.581-0.297-3.871,0.014c-1.343,0.324-2.398,1.067-3.201,2.182
				c-0.558,0.774-0.938,1.633-1.172,2.555c-0.098,0.396-0.169,0.798-0.262,1.237C58.119,48.239,62.486,48.239,66.923,48.239z"/>
			<path style="fill-rule:evenodd;clip-rule:evenodd;fill:#F54238;" d="M68.479,27.896c0,1.311,0,2.626,0,3.94
				c-0.385,0.107-15.906,0.124-16.453,0.014c0-1.309,0-2.624,0-3.936C52.402,27.8,67.943,27.78,68.479,27.896z"/>
		</g>
	</g>
</g>
<g id="Layer_19">
	<g id="Layer_20">
	</g>
	<g id="Layer_21">
	</g>
	<g id="Layer_22">
	</g>
</g>
<g id="Layer_23">
</g>
<g id="Layer_24">
</g>
<g id="Layer_25">
</g>
</svg>
