<?xml version="1.0" encoding="utf-8"?>
<!-- Generator: Adobe Illustrator 16.0.4, SVG Export Plug-In . SVG Version: 6.00 Build 0)  -->
<!DOCTYPE svg PUBLIC "-//W3C//DTD SVG 1.1//EN" "http://www.w3.org/Graphics/SVG/1.1/DTD/svg11.dtd">
<svg version="1.1" xmlns="http://www.w3.org/2000/svg" xmlns:xlink="http://www.w3.org/1999/xlink" x="0px" y="0px"
	 width="82.675px" height="95.461px" viewBox="0 0 82.675 95.461" style="enable-background:new 0 0 82.675 95.461;"
	 xml:space="preserve">
<g id="Layer_1">
</g>
<g id="Layer_7">
</g>
<g id="Layer_2">
</g>
<g id="Layer_5">
</g>
<g id="Layer_3">
</g>
<g id="Layer_6">
</g>
<g id="Layer_10">
</g>
<g id="Layer_11">
</g>
<g id="Layer_12">
</g>
<g id="Layer_13">
</g>
<g id="Layer_4">
</g>
<g id="Layer_8">
</g>
<g id="Layer_9">
	<g id="Layer_14">
	</g>
	<g id="guides">
	</g>
</g>
<g id="Layer_16">
	<g id="Layer_17">
	</g>
	<g id="Layer_18">
	</g>
	<g>
		<polygon style="fill:#FFFFFF;" points="0,23.865 41.338,0 82.675,23.865 82.675,71.596 41.338,95.461 0,71.596 		"/>
		<g>
			<path style="fill-rule:evenodd;clip-rule:evenodd;fill:#F54238;" d="M68.442,69.97c-3.572,0-7.027,0-10.573,0
				c0-0.292,0-0.552,0-0.811c0-6.659,0.005-13.319-0.003-19.977c-0.004-2.539-1.304-4.391-3.584-5.166
				c-3.017-1.025-6.29,0.963-6.775,4.127c-0.069,0.461-0.088,0.936-0.088,1.402c-0.005,6.548-0.003,13.096-0.003,19.643
				c0,0.242,0,0.484,0,0.77c-3.507,0-6.956,0-10.453,0c0-12.223,0-24.431,0-36.691c3.461,0,6.911,0,10.438,0
				c0,2.066,0,4.129,0,6.192c0.056,0.025,0.111,0.049,0.165,0.074c0.34-0.418,0.682-0.834,1.018-1.257
				c1.271-1.608,2.73-2.998,4.52-4.026c2.357-1.355,4.815-1.271,7.235-0.314c4.534,1.795,6.965,5.323,7.839,10.002
				c0.2,1.068,0.248,2.178,0.252,3.268c0.021,7.328,0.013,14.658,0.013,21.988C68.442,69.432,68.442,69.674,68.442,69.97z"/>
			<path style="fill-rule:evenodd;clip-rule:evenodd;fill:#F54238;" d="M31.663,69.965c-3.531,0-6.985,0-10.486,0
				c0-12.244,0-24.451,0-36.703c3.505,0,6.977,0,10.486,0C31.663,45.501,31.663,57.709,31.663,69.965z"/>
			<path style="fill-rule:evenodd;clip-rule:evenodd;fill:#F54238;" d="M26.332,17.492c2.822-0.085,5.252,2.256,5.34,5.15
				c0.089,2.816-2.257,5.25-5.15,5.344c-2.809,0.091-5.226-2.217-5.329-5.086C21.09,19.998,23.388,17.579,26.332,17.492z"/>
		</g>
	</g>
</g>
<g id="Layer_19">
	<g id="Layer_20">
	</g>
	<g id="Layer_21">
	</g>
	<g id="Layer_22">
	</g>
</g>
<g id="Layer_23">
</g>
<g id="Layer_24">
</g>
<g id="Layer_25">
</g>
</svg>
